<svg xmlns="http://www.w3.org/2000/svg" xml:space="preserve" width="670.91962" height="700" viewBox="0 0 670.91962 700"><g style="fill:#fff"><path d="M0 0a1.9 1.9 0 1 0-3.802 0A1.9 1.9 0 0 0 0 0" style="fill:#fff;fill-opacity:1;fill-rule:nonzero;stroke:none" transform="matrix(96.73779 0 0 -96.73779 520.045 260.267)"/></g><g style="fill:#575756;fill-opacity:1"><path d="M230.349 1086.257h-11.442v-48.829h11.442v18.198h13.333v11.442H230.35zm-16.487 24.234c0-3.423-1.26-6.396-3.693-8.829-2.523-2.522-5.496-3.693-9.01-3.693-3.423 0-6.396 1.17-8.918 3.693-2.433 2.433-3.694 5.406-3.694 8.829 0 3.604 1.261 6.577 3.694 9.009 2.522 2.433 5.495 3.604 8.919 3.604 3.513 0 6.486-1.171 9.009-3.604 2.432-2.432 3.693-5.405 3.693-9.009m11.262.18c0 3.153-.631 6.126-1.892 8.739-1.262 2.703-2.973 5.045-5.045 7.207-2.253 2.072-4.775 3.694-7.748 4.955a24.67 24.67 0 0 1-9.28 1.802 24.21 24.21 0 0 1-9.189-1.802c-2.882-1.261-5.405-2.883-7.657-4.955-2.162-2.162-3.874-4.504-5.135-7.207-1.352-2.613-1.982-5.586-1.982-8.739 0-3.153.63-6.036 1.982-8.829 1.26-2.702 2.973-5.045 5.135-7.117 2.252-2.072 4.775-3.783 7.657-4.955 2.883-1.26 5.946-1.892 9.19-1.892 3.243 0 6.396.631 9.279 1.892 2.973 1.172 5.495 2.883 7.748 4.955 2.072 2.072 3.783 4.415 5.045 7.117 1.261 2.793 1.892 5.676 1.892 8.83m-31.802-49.82h-26.487v13.153h26.487zm11.441 22.702h-49.28v-44.685h11.442v12.253h26.397v-12.253h11.441z" style="fill:#575756;fill-opacity:1;fill-rule:nonzero;stroke:none;stroke-width:90.0901" transform="matrix(1.07379 0 0 1.07379 -80.22 -603.742)"/><path d="M318.475 1037.446h11.441v92.883h-11.441zm-25.135 25.135c0-3.697-1.354-6.937-4.053-9.55-2.7-2.612-5.946-3.966-9.73-3.966-3.697 0-6.937 1.354-9.64 3.966-2.612 2.613-3.967 5.858-3.967 9.55 0 3.697 1.355 6.846 3.967 9.549 2.7 2.699 5.946 4.053 9.64 4.053 3.783 0 7.027-1.354 9.73-4.053 2.699-2.7 4.053-5.858 4.053-9.55m11.081 0c0 3.245-.723 6.217-1.976 9.1-1.268 2.887-3.06 5.315-5.315 7.388a27.27 27.27 0 0 1-7.928 5.136c-2.974 1.267-6.216 1.889-9.64 1.889-3.33 0-6.575-.608-9.55-1.89a27.282 27.282 0 0 1-7.928-5.135 23.435 23.435 0 0 1-5.402-7.388c-1.354-2.887-1.976-5.858-1.976-9.1 0-3.156.607-6.216 1.976-9.008a25.324 25.324 0 0 1 5.402-7.567c2.342-2.078 4.95-3.784 7.929-5.05 2.973-1.263 6.216-1.89 9.549-1.89 3.422 0 6.669.608 9.64 1.89 2.974 1.268 5.587 2.974 7.928 5.05 2.25 2.164 4.053 4.684 5.315 7.567 1.263 2.796 1.976 5.858 1.976 9.009m-55.136 39.64v-10.27h62.163v10.27h-26.036v25.044H274.06v-25.044z" style="fill:#575756;fill-opacity:1;fill-rule:nonzero;stroke:none;stroke-width:90.0902" transform="matrix(1.07379 0 0 1.07379 -80.22 -603.742)"/><path d="M420.7 1130.329h-11.442v-92.883H420.7v35.766h13.333v11.621H420.7zm-49.01-92.343 30.631 75.136-10.18 4.504-20.45-50.99-20.09 51.71-10.54-4.594zM510.98 1037.4h11.531v44.145h-11.532v-17.478h-15.765v-10.09h15.765zm.18 68.83H460.8v12.792h50.36zm-32.613-45.586c0-3.423-1.171-6.306-3.604-8.739-2.432-2.432-5.315-3.694-8.738-3.694-3.424 0-6.307 1.262-8.739 3.694-2.342 2.433-3.604 5.315-3.604 8.739 0 3.423 1.262 6.306 3.604 8.649 2.432 2.432 5.315 3.603 8.739 3.603 3.423 0 6.306-1.171 8.738-3.603 2.433-2.343 3.604-5.226 3.604-8.65m-29.009 27.388h11.351v9.19h50.27v-9.19h11.352v40.45h-72.973zm40.09-27.387c0 3.063-.63 5.946-1.892 8.559-1.261 2.702-2.883 5.045-4.955 7.027-2.162 2.072-4.684 3.603-7.567 4.774-2.793 1.262-5.856 1.802-9.01 1.802-3.243 0-6.216-.54-9.098-1.802-2.793-1.17-5.316-2.702-7.478-4.774a23.317 23.317 0 0 1-5.045-7.027c-1.261-2.613-1.802-5.496-1.802-8.56 0-3.062.54-5.945 1.802-8.648a23.319 23.319 0 0 1 5.045-7.027c2.162-2.072 4.685-3.693 7.478-4.865 2.882-1.17 5.855-1.801 9.099-1.801 3.153 0 6.216.63 9.009 1.801 2.883 1.172 5.405 2.793 7.567 4.865 2.072 1.982 3.694 4.325 4.955 7.027 1.262 2.703 1.892 5.586 1.892 8.649M607.213 1086.887v-17.747h-16.216v-9.82h16.216v-21.892h11.532v49.46zm-7.748 23.514c0-3.424-1.261-6.397-3.784-8.92-2.522-2.522-5.585-3.783-9.099-3.783-3.513 0-6.486 1.261-8.919 3.784-2.522 2.522-3.783 5.495-3.783 8.919 0 3.603 1.26 6.576 3.783 9.009 2.433 2.522 5.406 3.694 8.92 3.694 3.513 0 6.576-1.172 9.098-3.694 2.523-2.433 3.784-5.406 3.784-9.01m11.352.09c0 3.154-.631 6.127-1.892 8.83-1.262 2.792-2.973 5.135-5.135 7.297-2.163 2.072-4.685 3.694-7.658 4.955a25.487 25.487 0 0 1-18.829 0c-2.973-1.261-5.586-2.883-7.658-4.955-2.162-2.162-3.873-4.505-5.225-7.297-1.261-2.703-1.892-5.676-1.892-8.83 0-3.062.63-6.035 1.892-8.738 1.352-2.793 3.063-5.135 5.225-7.297 2.072-2.072 4.685-3.694 7.658-4.865a23.853 23.853 0 0 1 9.37-1.892c3.333 0 6.486.63 9.459 1.892 2.973 1.171 5.495 2.793 7.658 4.865 2.162 2.162 3.873 4.504 5.135 7.297 1.261 2.703 1.892 5.676 1.892 8.739m-74.145-55.676v-9.73h21.802v-8.828h12.252v8.828h20.721v9.73h-22.612l23.513 23.694-7.567 7.117-20.18-20.991-20 22.703-7.748-7.208 23.603-25.315z" style="fill:#575756;fill-opacity:1;fill-rule:nonzero;stroke:none;stroke-width:90.0901" transform="matrix(1.07379 0 0 1.07379 -80.22 -603.742)"/></g><g style="fill:#003863;fill-opacity:1"><path d="M0 0a.628.628 0 0 1-.893-.187.633.633 0 0 0-.525-.291.633.633 0 0 0-.61.463l-.002.007-.002.008a.796.796 0 0 0-.032.249c0 .563.577 1.19 1.408 1.19C.196 1.439.684.791.81.43a1.795 1.795 0 0 1-3.497-.563c0-.885.638-1.643 1.524-1.643.707 0 1.181.396 1.399.942A.69.69 0 0 1 0 0" style="fill:#003863;fill-opacity:1;fill-rule:nonzero;stroke:none" transform="matrix(96.73779 0 0 -96.73779 422.64 247.419)"/></g><g style="fill:#e4032e;fill-opacity:1"><path d="M0 0c-.105.352-.596 1.044-1.476 1.044-.832 0-1.409-.627-1.409-1.19 0-.104.006-.151.032-.249a.516.516 0 0 0-.016.128c0 .586.587.992 1.19.992C-.862.725-.2.063-.2-.754a1.63 1.63 0 0 0-.904-1.46v-.001A1.795 1.795 0 0 1 0 0" style="fill:#e4032e;fill-opacity:1;fill-rule:nonzero;stroke:none" transform="matrix(96.73779 0 0 -96.73779 502.014 209.198)"/></g></svg>